<svg width="216" height="20" viewBox="0 0 216 20" fill="none" xmlns="http://www.w3.org/2000/svg">
<path d="M-1.10567e-05 19.4673V4.46733H2.98294V6.29971H3.11789C3.25046 6.00615 3.44222 5.70786 3.69317 5.40483C3.94885 5.09706 4.28029 4.84138 4.68749 4.63778C5.09942 4.42945 5.61078 4.32528 6.22158 4.32528C7.01703 4.32528 7.75094 4.53362 8.42328 4.95028C9.09563 5.36221 9.63304 5.98485 10.0355 6.81818C10.438 7.64678 10.6392 8.68608 10.6392 9.93608C10.6392 11.1529 10.4427 12.1804 10.0497 13.0185C9.66145 13.8518 9.13114 14.4839 8.4588 14.9148C7.79118 15.3409 7.04308 15.554 6.21448 15.554C5.62736 15.554 5.12783 15.4569 4.7159 15.2628C4.3087 15.0687 3.97489 14.8248 3.71448 14.5312C3.45406 14.233 3.2552 13.9323 3.11789 13.6293H3.02556V19.4673H-1.10567e-05ZM2.96164 9.92187C2.96164 10.5705 3.0516 11.1364 3.23152 11.6193C3.41145 12.1023 3.67186 12.4787 4.01277 12.7486C4.35368 13.0137 4.76798 13.1463 5.25567 13.1463C5.7481 13.1463 6.16476 13.0114 6.50567 12.7415C6.84658 12.4669 7.10463 12.0881 7.27982 11.6051C7.45974 11.1174 7.54971 10.5563 7.54971 9.92187C7.54971 9.29214 7.46211 8.73816 7.28692 8.25994C7.11173 7.78172 6.85368 7.40767 6.51277 7.13778C6.17186 6.8679 5.75283 6.73295 5.25567 6.73295C4.76325 6.73295 4.34658 6.86316 4.00567 7.12358C3.6695 7.38399 3.41145 7.75331 3.23152 8.23153C3.0516 8.70975 2.96164 9.2732 2.96164 9.92187ZM21.3329 7.57812L18.5631 7.74858C18.5157 7.51184 18.4139 7.29877 18.2577 7.10937C18.1014 6.91524 17.8954 6.76136 17.6398 6.64773C17.3888 6.52935 17.0882 6.47017 16.7378 6.47017C16.269 6.47017 15.8737 6.5696 15.5517 6.76846C15.2297 6.96259 15.0687 7.22301 15.0687 7.54971C15.0687 7.81013 15.1729 8.0303 15.3812 8.21023C15.5896 8.39015 15.9471 8.53456 16.4537 8.64346L18.4281 9.04119C19.4887 9.25899 20.2794 9.60937 20.8003 10.0923C21.3211 10.5753 21.5815 11.2098 21.5815 11.9957C21.5815 12.7107 21.3708 13.3381 20.9494 13.8778C20.5328 14.4176 19.9598 14.839 19.2307 15.142C18.5062 15.4403 17.6705 15.5895 16.7236 15.5895C15.2794 15.5895 14.1289 15.2888 13.2719 14.6875C12.4196 14.0814 11.9201 13.2576 11.7733 12.2159L14.7491 12.0597C14.8391 12.5 15.0569 12.8362 15.4025 13.0682C15.7482 13.2955 16.1909 13.4091 16.7307 13.4091C17.261 13.4091 17.6871 13.3073 18.0091 13.1037C18.3358 12.8954 18.5015 12.6278 18.5062 12.3011C18.5015 12.0265 18.3855 11.8016 18.1582 11.6264C17.931 11.4465 17.5806 11.3092 17.1071 11.2145L15.2179 10.8381C14.1525 10.625 13.3595 10.2557 12.8386 9.73011C12.3225 9.20454 12.0645 8.53456 12.0645 7.72017C12.0645 7.01941 12.2539 6.41572 12.6327 5.90909C13.0162 5.40246 13.5536 5.01184 14.2449 4.73721C14.9409 4.46259 15.7553 4.32528 16.6881 4.32528C18.0659 4.32528 19.1502 4.61648 19.9409 5.19886C20.7364 5.78125 21.2004 6.57434 21.3329 7.57812ZM24.9546 19.4673C24.5711 19.4673 24.2112 19.4366 23.8751 19.375C23.5436 19.3182 23.269 19.2448 23.0512 19.1548L23.733 16.8963C24.0881 17.0052 24.4077 17.0644 24.6918 17.0739C24.9806 17.0833 25.2292 17.017 25.4376 16.875C25.6506 16.733 25.8235 16.4915 25.956 16.1506L26.1336 15.6889L22.2202 4.46733H25.402L27.6606 12.4787H27.7742L30.054 4.46733H33.2572L29.0171 16.5554C28.8135 17.1425 28.5365 17.6539 28.1861 18.0895C27.8405 18.5298 27.4025 18.8684 26.8722 19.1051C26.3419 19.3466 25.7027 19.4673 24.9546 19.4673ZM38.9829 15.5895C37.8654 15.5895 36.9043 15.3527 36.0993 14.8793C35.2992 14.401 34.6836 13.7382 34.2528 12.8906C33.8266 12.0431 33.6136 11.0677 33.6136 9.96449C33.6136 8.84706 33.829 7.86695 34.2599 7.02415C34.6955 6.17661 35.3134 5.5161 36.1136 5.04261C36.9137 4.56439 37.8654 4.32528 38.9687 4.32528C39.9204 4.32528 40.7537 4.4981 41.4687 4.84375C42.1836 5.18939 42.7494 5.67471 43.1661 6.29971C43.5828 6.92471 43.8124 7.65862 43.855 8.50142H40.9999C40.9194 7.95691 40.7064 7.51894 40.3607 7.1875C40.0198 6.85132 39.5724 6.68324 39.0184 6.68324C38.5496 6.68324 38.1401 6.81108 37.7897 7.06676C37.444 7.31771 37.1742 7.68466 36.98 8.16761C36.7859 8.65057 36.6888 9.23532 36.6888 9.92187C36.6888 10.6179 36.7835 11.2098 36.9729 11.6974C37.1671 12.1851 37.4393 12.5568 37.7897 12.8125C38.1401 13.0682 38.5496 13.196 39.0184 13.196C39.364 13.196 39.6742 13.125 39.9488 12.983C40.2281 12.8409 40.4578 12.6349 40.6377 12.3651C40.8224 12.0904 40.9431 11.7614 40.9999 11.3778H43.855C43.8077 12.2112 43.5804 12.9451 43.1732 13.5795C42.7708 14.2093 42.2144 14.7017 41.5042 15.0568C40.794 15.4119 39.9535 15.5895 38.9829 15.5895ZM48.4177 9.0696V15.3764H45.3922V0.830964H48.3325V6.39204H48.4604C48.7066 5.7481 49.1043 5.24384 49.6535 4.87926C50.2028 4.50994 50.8917 4.32528 51.7203 4.32528C52.4779 4.32528 53.1384 4.491 53.7018 4.82244C54.27 5.14915 54.7104 5.62026 55.0229 6.23579C55.3401 6.84659 55.4963 7.57812 55.4916 8.4304V15.3764H52.466V8.97017C52.4708 8.29782 52.3003 7.77462 51.9547 7.40057C51.6138 7.02651 51.1355 6.83949 50.52 6.83949C50.1081 6.83949 49.7435 6.92708 49.4263 7.10227C49.1138 7.27746 48.8676 7.53314 48.6876 7.86932C48.5124 8.20076 48.4225 8.60085 48.4177 9.0696ZM62.4016 15.5895C61.2984 15.5895 60.3443 15.3551 59.5394 14.8864C58.7392 14.4129 58.1213 13.7547 57.6857 12.9119C57.2501 12.0644 57.0323 11.0819 57.0323 9.96449C57.0323 8.83759 57.2501 7.85274 57.6857 7.00994C58.1213 6.1624 58.7392 5.50426 59.5394 5.03551C60.3443 4.56202 61.2984 4.32528 62.4016 4.32528C63.5048 4.32528 64.4565 4.56202 65.2567 5.03551C66.0617 5.50426 66.6819 6.1624 67.1175 7.00994C67.5531 7.85274 67.7709 8.83759 67.7709 9.96449C67.7709 11.0819 67.5531 12.0644 67.1175 12.9119C66.6819 13.7547 66.0617 14.4129 65.2567 14.8864C64.4565 15.3551 63.5048 15.5895 62.4016 15.5895ZM62.4158 13.2457C62.9177 13.2457 63.3368 13.1037 63.6729 12.8196C64.0091 12.5308 64.2624 12.1378 64.4329 11.6406C64.6081 11.1435 64.6957 10.5776 64.6957 9.94318C64.6957 9.30871 64.6081 8.7429 64.4329 8.24574C64.2624 7.74858 64.0091 7.35559 63.6729 7.06676C63.3368 6.77793 62.9177 6.63352 62.4158 6.63352C61.9092 6.63352 61.4831 6.77793 61.1374 7.06676C60.7965 7.35559 60.5385 7.74858 60.3633 8.24574C60.1928 8.7429 60.1076 9.30871 60.1076 9.94318C60.1076 10.5776 60.1928 11.1435 60.3633 11.6406C60.5385 12.1378 60.7965 12.5308 61.1374 12.8196C61.4831 13.1037 61.9092 13.2457 62.4158 13.2457ZM72.3638 0.830964V15.3764H69.3383V0.830964H72.3638ZM79.3165 15.5895C78.2132 15.5895 77.2592 15.3551 76.4542 14.8864C75.6541 14.4129 75.0362 13.7547 74.6006 12.9119C74.1649 12.0644 73.9471 11.0819 73.9471 9.96449C73.9471 8.83759 74.1649 7.85274 74.6006 7.00994C75.0362 6.1624 75.6541 5.50426 76.4542 5.03551C77.2592 4.56202 78.2132 4.32528 79.3165 4.32528C80.4197 4.32528 81.3714 4.56202 82.1716 5.03551C82.9765 5.50426 83.5968 6.1624 84.0324 7.00994C84.468 7.85274 84.6858 8.83759 84.6858 9.96449C84.6858 11.0819 84.468 12.0644 84.0324 12.9119C83.5968 13.7547 82.9765 14.4129 82.1716 14.8864C81.3714 15.3551 80.4197 15.5895 79.3165 15.5895ZM79.3307 13.2457C79.8326 13.2457 80.2516 13.1037 80.5878 12.8196C80.9239 12.5308 81.1773 12.1378 81.3477 11.6406C81.5229 11.1435 81.6105 10.5776 81.6105 9.94318C81.6105 9.30871 81.5229 8.7429 81.3477 8.24574C81.1773 7.74858 80.9239 7.35559 80.5878 7.06676C80.2516 6.77793 79.8326 6.63352 79.3307 6.63352C78.824 6.63352 78.3979 6.77793 78.0523 7.06676C77.7113 7.35559 77.4533 7.74858 77.2781 8.24574C77.1077 8.7429 77.0224 9.30871 77.0224 9.94318C77.0224 10.5776 77.1077 11.1435 77.2781 11.6406C77.4533 12.1378 77.7113 12.5308 78.0523 12.8196C78.3979 13.1037 78.824 13.2457 79.3307 13.2457ZM91.1679 19.6946C90.1878 19.6946 89.3473 19.5597 88.6466 19.2898C87.9506 19.0246 87.3966 18.6624 86.9847 18.2031C86.5727 17.7438 86.3052 17.2277 86.1821 16.6548L88.9804 16.2784C89.0656 16.4962 89.2006 16.6998 89.3852 16.8892C89.5699 17.0786 89.8137 17.2301 90.1168 17.3437C90.4245 17.4621 90.7986 17.5213 91.2389 17.5213C91.8971 17.5213 92.4392 17.3603 92.8653 17.0384C93.2962 16.7211 93.5116 16.1884 93.5116 15.4403V13.4446H93.3838C93.2512 13.7476 93.0524 14.0341 92.7872 14.304C92.5221 14.5739 92.1811 14.794 91.7645 14.9645C91.3478 15.1349 90.8507 15.2202 90.273 15.2202C89.4539 15.2202 88.7081 15.0308 88.0358 14.652C87.3682 14.2685 86.8355 13.6837 86.4378 12.8977C86.0448 12.107 85.8483 11.108 85.8483 9.90057C85.8483 8.66477 86.0495 7.63257 86.452 6.80398C86.8544 5.97538 87.3895 5.35511 88.0571 4.94318C88.7294 4.53125 89.4657 4.32528 90.2659 4.32528C90.8767 4.32528 91.3881 4.42945 91.8 4.63778C92.2119 4.84138 92.5434 5.09706 92.7943 5.40483C93.05 5.70786 93.2465 6.00615 93.3838 6.29971H93.4974V4.46733H96.5017V15.483C96.5017 16.411 96.2744 17.1875 95.8199 17.8125C95.3653 18.4375 94.7356 18.9062 93.9307 19.2187C93.1305 19.536 92.2096 19.6946 91.1679 19.6946ZM91.2318 12.9474C91.7195 12.9474 92.1314 12.8267 92.4676 12.5852C92.8085 12.339 93.0689 11.9886 93.2489 11.5341C93.4335 11.0748 93.5258 10.5256 93.5258 9.88636C93.5258 9.24716 93.4359 8.69318 93.256 8.22443C93.076 7.75095 92.8156 7.38399 92.4747 7.12358C92.1338 6.86316 91.7195 6.73295 91.2318 6.73295C90.7347 6.73295 90.3156 6.8679 89.9747 7.13778C89.6338 7.40293 89.3757 7.77225 89.2006 8.24574C89.0254 8.71922 88.9378 9.2661 88.9378 9.88636C88.9378 10.5161 89.0254 11.0606 89.2006 11.5199C89.3805 11.9744 89.6385 12.3272 89.9747 12.5781C90.3156 12.8243 90.7347 12.9474 91.2318 12.9474ZM98.5094 15.3764V4.46733H101.535V15.3764H98.5094ZM100.029 3.06108C99.5794 3.06108 99.1936 2.91193 98.8716 2.61363C98.5543 2.3106 98.3957 1.94839 98.3957 1.52699C98.3957 1.11032 98.5543 0.752839 98.8716 0.454544C99.1936 0.151513 99.5794 -2.14577e-06 100.029 -2.14577e-06C100.479 -2.14577e-06 100.863 0.151513 101.18 0.454544C101.502 0.752839 101.663 1.11032 101.663 1.52699C101.663 1.94839 101.502 2.3106 101.18 2.61363C100.863 2.91193 100.479 3.06108 100.029 3.06108ZM112.635 7.57812L109.865 7.74858C109.818 7.51184 109.716 7.29877 109.56 7.10937C109.404 6.91524 109.198 6.76136 108.942 6.64773C108.691 6.52935 108.39 6.47017 108.04 6.47017C107.571 6.47017 107.176 6.5696 106.854 6.76846C106.532 6.96259 106.371 7.22301 106.371 7.54971C106.371 7.81013 106.475 8.0303 106.684 8.21023C106.892 8.39015 107.249 8.53456 107.756 8.64346L109.73 9.04119C110.791 9.25899 111.582 9.60937 112.103 10.0923C112.623 10.5753 112.884 11.2098 112.884 11.9957C112.884 12.7107 112.673 13.3381 112.252 13.8778C111.835 14.4176 111.262 14.839 110.533 15.142C109.809 15.4403 108.973 15.5895 108.026 15.5895C106.582 15.5895 105.431 15.2888 104.574 14.6875C103.722 14.0814 103.222 13.2576 103.076 12.2159L106.051 12.0597C106.141 12.5 106.359 12.8362 106.705 13.0682C107.051 13.2955 107.493 13.4091 108.033 13.4091C108.563 13.4091 108.989 13.3073 109.311 13.1037C109.638 12.8954 109.804 12.6278 109.809 12.3011C109.804 12.0265 109.688 11.8016 109.461 11.6264C109.233 11.4465 108.883 11.3092 108.409 11.2145L106.52 10.8381C105.455 10.625 104.662 10.2557 104.141 9.73011C103.625 9.20454 103.367 8.53456 103.367 7.72017C103.367 7.01941 103.556 6.41572 103.935 5.90909C104.319 5.40246 104.856 5.01184 105.547 4.73721C106.243 4.46259 107.058 4.32528 107.99 4.32528C109.368 4.32528 110.453 4.61648 111.243 5.19886C112.039 5.78125 112.503 6.57434 112.635 7.57812ZM120.192 4.46733V6.74006H113.622V4.46733H120.192ZM115.113 1.85369H118.139V12.0241C118.139 12.3035 118.182 12.5213 118.267 12.6776C118.352 12.8291 118.47 12.9356 118.622 12.9972C118.778 13.0587 118.958 13.0895 119.162 13.0895C119.304 13.0895 119.446 13.0777 119.588 13.054C119.73 13.0256 119.839 13.0043 119.915 12.9901L120.39 15.2415C120.239 15.2888 120.026 15.3433 119.751 15.4048C119.477 15.4711 119.143 15.5114 118.75 15.5256C118.021 15.554 117.381 15.4569 116.832 15.2344C116.288 15.0118 115.864 14.6662 115.561 14.1974C115.258 13.7287 115.109 13.1368 115.113 12.4219V1.85369ZM130.702 7.57812L127.933 7.74858C127.885 7.51184 127.783 7.29877 127.627 7.10937C127.471 6.91524 127.265 6.76136 127.009 6.64773C126.758 6.52935 126.458 6.47017 126.107 6.47017C125.639 6.47017 125.243 6.5696 124.921 6.76846C124.599 6.96259 124.438 7.22301 124.438 7.54971C124.438 7.81013 124.542 8.0303 124.751 8.21023C124.959 8.39015 125.317 8.53456 125.823 8.64346L127.798 9.04119C128.858 9.25899 129.649 9.60937 130.17 10.0923C130.691 10.5753 130.951 11.2098 130.951 11.9957C130.951 12.7107 130.74 13.3381 130.319 13.8778C129.902 14.4176 129.329 14.839 128.6 15.142C127.876 15.4403 127.04 15.5895 126.093 15.5895C124.649 15.5895 123.498 15.2888 122.641 14.6875C121.789 14.0814 121.29 13.2576 121.143 12.2159L124.119 12.0597C124.209 12.5 124.426 12.8362 124.772 13.0682C125.118 13.2955 125.56 13.4091 126.1 13.4091C126.631 13.4091 127.057 13.3073 127.379 13.1037C127.705 12.8954 127.871 12.6278 127.876 12.3011C127.871 12.0265 127.755 11.8016 127.528 11.6264C127.3 11.4465 126.95 11.3092 126.477 11.2145L124.587 10.8381C123.522 10.625 122.729 10.2557 122.208 9.73011C121.692 9.20454 121.434 8.53456 121.434 7.72017C121.434 7.01941 121.623 6.41572 122.002 5.90909C122.386 5.40246 122.923 5.01184 123.614 4.73721C124.31 4.46259 125.125 4.32528 126.058 4.32528C127.435 4.32528 128.52 4.61648 129.31 5.19886C130.106 5.78125 130.57 6.57434 130.702 7.57812ZM134.076 15.5114C133.687 15.5114 133.353 15.3741 133.074 15.0994C132.795 14.8201 132.655 14.4839 132.655 14.0909C132.655 13.7027 132.795 13.3712 133.074 13.0966C133.353 12.8172 133.687 12.6776 134.076 12.6776C134.464 12.6776 134.798 12.8172 135.077 13.0966C135.356 13.3712 135.496 13.7027 135.496 14.0909C135.496 14.3513 135.43 14.5904 135.297 14.8082C135.169 15.0213 134.999 15.1918 134.786 15.3196C134.573 15.4474 134.336 15.5114 134.076 15.5114Z" fill="#54BE96"/>
<path d="M146.456 7.35085L144.112 7.60653C144.046 7.36979 143.93 7.14725 143.764 6.93892C143.603 6.73059 143.386 6.5625 143.111 6.43466C142.836 6.30682 142.5 6.2429 142.102 6.2429C141.567 6.2429 141.118 6.3589 140.753 6.59091C140.393 6.82292 140.216 7.12358 140.22 7.4929C140.216 7.81013 140.332 8.06818 140.568 8.26704C140.81 8.46591 141.208 8.62926 141.761 8.7571L143.622 9.15483C144.654 9.37737 145.422 9.73011 145.923 10.2131C146.43 10.696 146.686 11.3281 146.69 12.1094C146.686 12.7959 146.485 13.402 146.087 13.9276C145.694 14.4484 145.147 14.8556 144.446 15.1491C143.745 15.4427 142.94 15.5895 142.031 15.5895C140.696 15.5895 139.621 15.3101 138.807 14.7514C137.993 14.188 137.507 13.4044 137.351 12.4006L139.858 12.1591C139.972 12.6515 140.213 13.0232 140.583 13.2741C140.952 13.5251 141.432 13.6506 142.024 13.6506C142.635 13.6506 143.125 13.5251 143.494 13.2741C143.868 13.0232 144.056 12.7131 144.056 12.3437C144.056 12.0312 143.935 11.7732 143.693 11.5696C143.457 11.366 143.087 11.2098 142.585 11.1009L140.725 10.7102C139.678 10.4924 138.904 10.1255 138.402 9.60937C137.9 9.08854 137.652 8.4304 137.656 7.63494C137.652 6.96259 137.834 6.38021 138.203 5.88778C138.577 5.39062 139.096 5.0071 139.759 4.73721C140.426 4.46259 141.196 4.32528 142.067 4.32528C143.345 4.32528 144.351 4.59754 145.085 5.14204C145.824 5.68655 146.281 6.42282 146.456 7.35085ZM153.24 15.5895C152.146 15.5895 151.202 15.3622 150.406 14.9077C149.616 14.4484 149.007 13.7997 148.581 12.9616C148.155 12.1188 147.942 11.1269 147.942 9.98579C147.942 8.86363 148.155 7.87879 148.581 7.03125C149.012 6.17898 149.613 5.5161 150.385 5.04261C151.157 4.56439 152.063 4.32528 153.105 4.32528C153.777 4.32528 154.412 4.43418 155.009 4.65199C155.61 4.86505 156.14 5.19649 156.599 5.64631C157.063 6.09612 157.428 6.66903 157.693 7.36506C157.958 8.05634 158.091 8.88021 158.091 9.83665V10.625H149.149V8.89204H155.626C155.622 8.39962 155.515 7.96165 155.307 7.57812C155.098 7.18987 154.807 6.88447 154.433 6.66193C154.064 6.43939 153.633 6.32812 153.141 6.32812C152.615 6.32812 152.153 6.45596 151.756 6.71165C151.358 6.96259 151.048 7.29403 150.825 7.70596C150.607 8.11316 150.496 8.5606 150.491 9.04829V10.5611C150.491 11.1955 150.607 11.7401 150.839 12.1946C151.071 12.6444 151.396 12.9901 151.812 13.2315C152.229 13.4683 152.717 13.5866 153.276 13.5866C153.65 13.5866 153.988 13.5346 154.291 13.4304C154.594 13.3215 154.857 13.1629 155.08 12.9545C155.302 12.7462 155.47 12.4882 155.584 12.1804L157.984 12.4503C157.833 13.0848 157.544 13.6387 157.118 14.1122C156.696 14.581 156.157 14.9455 155.499 15.206C154.84 15.4616 154.088 15.5895 153.24 15.5895ZM159.866 15.3764V4.46733H162.359V6.28551H162.473C162.671 5.65578 163.012 5.17045 163.495 4.82954C163.983 4.4839 164.539 4.31108 165.164 4.31108C165.306 4.31108 165.465 4.31818 165.64 4.33238C165.82 4.34185 165.969 4.35843 166.088 4.3821V6.74716C165.979 6.70928 165.806 6.67613 165.569 6.64773C165.337 6.61458 165.112 6.59801 164.894 6.59801C164.426 6.59801 164.004 6.69981 163.63 6.90341C163.261 7.10227 162.97 7.37926 162.757 7.73437C162.544 8.08949 162.437 8.49905 162.437 8.96307V15.3764H159.866ZM177.472 4.46733L173.587 15.3764H170.746L166.861 4.46733H169.603L172.11 12.571H172.223L174.738 4.46733H177.472ZM178.851 15.3764V4.46733H181.422V15.3764H178.851ZM180.144 2.91903C179.737 2.91903 179.386 2.78409 179.093 2.5142C178.799 2.23958 178.652 1.91051 178.652 1.52699C178.652 1.13873 178.799 0.809657 179.093 0.53977C179.386 0.26515 179.737 0.127839 180.144 0.127839C180.556 0.127839 180.906 0.26515 181.195 0.53977C181.488 0.809657 181.635 1.13873 181.635 1.52699C181.635 1.91051 181.488 2.23958 181.195 2.5142C180.906 2.78409 180.556 2.91903 180.144 2.91903ZM188.424 15.5895C187.335 15.5895 186.4 15.3504 185.619 14.8722C184.843 14.3939 184.244 13.7334 183.822 12.8906C183.406 12.0431 183.197 11.0677 183.197 9.96449C183.197 8.85653 183.41 7.87879 183.836 7.03125C184.263 6.17898 184.864 5.5161 185.64 5.04261C186.422 4.56439 187.345 4.32528 188.41 4.32528C189.296 4.32528 190.079 4.48863 190.761 4.81534C191.448 5.13731 191.995 5.59422 192.402 6.18608C192.809 6.7732 193.041 7.45975 193.098 8.24574H190.64C190.541 7.72017 190.304 7.2822 189.93 6.93182C189.561 6.5767 189.066 6.39915 188.446 6.39915C187.92 6.39915 187.459 6.54119 187.061 6.82528C186.663 7.10464 186.353 7.5071 186.13 8.03267C185.913 8.55824 185.804 9.18797 185.804 9.92187C185.804 10.6652 185.913 11.3044 186.13 11.8395C186.348 12.3698 186.654 12.7794 187.047 13.0682C187.444 13.3523 187.911 13.4943 188.446 13.4943C188.825 13.4943 189.163 13.4233 189.461 13.2812C189.764 13.1345 190.018 12.9238 190.221 12.6491C190.425 12.3745 190.565 12.0407 190.64 11.6477H193.098C193.036 12.4195 192.809 13.1037 192.416 13.7003C192.023 14.2921 191.488 14.7562 190.811 15.0923C190.134 15.4238 189.338 15.5895 188.424 15.5895ZM199.638 15.5895C198.545 15.5895 197.6 15.3622 196.805 14.9077C196.014 14.4484 195.406 13.7997 194.979 12.9616C194.553 12.1188 194.34 11.1269 194.34 9.98579C194.34 8.86363 194.553 7.87879 194.979 7.03125C195.41 6.17898 196.012 5.5161 196.783 5.04261C197.555 4.56439 198.462 4.32528 199.504 4.32528C200.176 4.32528 200.81 4.43418 201.407 4.65199C202.008 4.86505 202.539 5.19649 202.998 5.64631C203.462 6.09612 203.826 6.66903 204.092 7.36506C204.357 8.05634 204.489 8.88021 204.489 9.83665V10.625H195.548V8.89204H202.025C202.02 8.39962 201.914 7.96165 201.705 7.57812C201.497 7.18987 201.206 6.88447 200.832 6.66193C200.462 6.43939 200.031 6.32812 199.539 6.32812C199.013 6.32812 198.552 6.45596 198.154 6.71165C197.756 6.96259 197.446 7.29403 197.224 7.70596C197.006 8.11316 196.895 8.5606 196.89 9.04829V10.5611C196.89 11.1955 197.006 11.7401 197.238 12.1946C197.47 12.6444 197.794 12.9901 198.211 13.2315C198.628 13.4683 199.115 13.5866 199.674 13.5866C200.048 13.5866 200.387 13.5346 200.69 13.4304C200.993 13.3215 201.255 13.1629 201.478 12.9545C201.701 12.7462 201.869 12.4882 201.982 12.1804L204.383 12.4503C204.231 13.0848 203.942 13.6387 203.516 14.1122C203.095 14.581 202.555 14.9455 201.897 15.206C201.239 15.4616 200.486 15.5895 199.638 15.5895ZM214.887 7.35085L212.543 7.60653C212.477 7.36979 212.361 7.14725 212.195 6.93892C212.034 6.73059 211.816 6.5625 211.541 6.43466C211.267 6.30682 210.931 6.2429 210.533 6.2429C209.998 6.2429 209.548 6.3589 209.183 6.59091C208.824 6.82292 208.646 7.12358 208.651 7.4929C208.646 7.81013 208.762 8.06818 208.999 8.26704C209.24 8.46591 209.638 8.62926 210.192 8.7571L212.053 9.15483C213.085 9.37737 213.852 9.73011 214.354 10.2131C214.861 10.696 215.116 11.3281 215.121 12.1094C215.116 12.7959 214.915 13.402 214.517 13.9276C214.124 14.4484 213.577 14.8556 212.877 15.1491C212.176 15.4427 211.371 15.5895 210.462 15.5895C209.127 15.5895 208.052 15.3101 207.237 14.7514C206.423 14.188 205.938 13.4044 205.781 12.4006L208.289 12.1591C208.402 12.6515 208.644 13.0232 209.013 13.2741C209.382 13.5251 209.863 13.6506 210.455 13.6506C211.066 13.6506 211.556 13.5251 211.925 13.2741C212.299 13.0232 212.486 12.7131 212.486 12.3437C212.486 12.0312 212.365 11.7732 212.124 11.5696C211.887 11.366 211.518 11.2098 211.016 11.1009L209.155 10.7102C208.109 10.4924 207.334 10.1255 206.833 9.60937C206.331 9.08854 206.082 8.4304 206.087 7.63494C206.082 6.96259 206.264 6.38021 206.634 5.88778C207.008 5.39062 207.526 5.0071 208.189 4.73721C208.857 4.46259 209.626 4.32528 210.497 4.32528C211.776 4.32528 212.782 4.59754 213.516 5.14204C214.254 5.68655 214.711 6.42282 214.887 7.35085Z" fill="#191A15"/>
</svg>
